name Walk3.mot
datacolumns 19
datarows 12
range 1.28000000 1.33500000
endheader

                time	   L_ground_force_vx	   L_ground_force_vy	   L_ground_force_vz	   L_ground_force_px	   L_ground_force_py	   L_ground_force_pz	   R_ground_force_vx	   R_ground_force_vy	   R_ground_force_vz	   R_ground_force_px	   R_ground_force_py	   R_ground_force_pz	   L_ground_torque_x	   L_ground_torque_y	   L_ground_torque_z	   R_ground_torque_x	   R_ground_torque_y	   R_ground_torque_z	
          1.28000000	        -10.08762728	         84.23810664	         -6.43527458	         -0.07582822	          0.00000000	          0.00002208	         -0.00000000	          0.00000000	          0.00000000	          0.00000000	          0.00000000	          0.00000000	          0.00000000	          0.06561088	          0.00000000	          0.00000000	          0.00000000	          0.00000000	
          1.28500000	        -14.31940188	        114.41415049	         -8.31196894	         -0.16877752	          0.00000000	         -0.00204415	         -0.00000000	          0.00000000	          0.00000000	          0.00000000	          0.00000000	          0.00000000	          0.00000000	          0.09419818	          0.00000000	          0.00000000	          0.00000000	          0.00000000	
          1.29000000	        -18.89522800	        146.73979616	        -10.23986841	         -0.25123120	          0.00000000	         -0.00398111	         -0.00000000	          0.00000000	         -0.00000000	          0.00000000	          0.00000000	          0.00000000	          0.00000000	          0.13180437	          0.00000000	          0.00000000	          0.00000000	          0.00000000	
          1.29500000	        -23.64358123	        179.30095902	        -12.00772440	         -0.32021040	          0.00000000	         -0.00576707	         -0.00000000	          0.00000000	         -0.00000000	          0.00000000	          0.00000000	         -0.00000000	          0.00000000	          0.17848329	          0.00000000	          0.00000000	          0.00000000	          0.00000000	
          1.30000000	        -28.46726182	        210.60246578	        -13.35580788	         -0.37485094	          0.00000000	         -0.00741994	         -0.00000000	          0.00000000	         -0.00000000	         -0.00000000	          0.00000000	         -0.00000000	          0.00000000	          0.23479255	          0.00000000	          0.00000000	          0.00000000	          0.00000000	
          1.30500000	        -33.32817039	        239.92167494	        -14.05575886	         -0.41571601	          0.00000000	         -0.00897738	         -0.00000000	         -0.00000000	         -0.00000000	         -0.00000000	          0.00000000	         -0.00000000	          0.00000000	          0.30143249	          0.00000000	          0.00000000	          0.00000000	          0.00000000	
          1.31000000	        -38.20759058	        266.98893127	        -13.96855782	         -0.44424110	          0.00000000	         -0.01048009	          0.00000000	         -0.00000001	         -0.00000000	         -0.00000000	          0.00000000	         -0.00000000	          0.00000000	          0.37855509	          0.00000000	          0.00000000	          0.00000000	          0.00000000	
          1.31500000	        -43.08465954	        291.76117445	        -13.05316191	         -0.46231509	          0.00000000	         -0.01195715	          0.00000000	         -0.00000001	         -0.00000000	         -0.00000000	          0.00000000	         -0.00000000	          0.00000000	          0.46566151	          0.00000000	          0.00000000	          0.00000000	          0.00000000	
          1.32000000	        -47.92831673	        314.40783467	        -11.35677471	         -0.47198201	          0.00000000	         -0.01341892	          0.00000000	         -0.00000002	         -0.00000000	         -0.00000000	          0.00000000	         -0.00000000	          0.00000000	          0.56142615	          0.00000000	          0.00000000	         -0.00000000	          0.00000000	
          1.32500000	        -52.70340595	        335.26054814	         -9.00368641	         -0.47523760	          0.00000000	         -0.01485654	          0.00000000	         -0.00000002	         -0.00000000	         -0.00000000	          0.00000000	         -0.00000000	          0.00000000	          0.66417670	          0.00000000	          0.00000000	         -0.00000000	          0.00000000	
          1.33000000	        -57.37776845	        354.71929063	         -6.17158950	         -0.47389146	          0.00000000	         -0.01624649	          0.00000000	         -0.00000003	         -0.00000000	         -0.00000000	          0.00000000	         -0.00000000	          0.00000000	          0.77222944	          0.00000000	          0.00000000	         -0.00000000	          0.00000000	
          1.33500000	        -61.92154656	        373.20469705	         -3.04325238	         -0.46948770	          0.00000000	         -0.01756365	          0.00000000	         -0.00000004	         -0.00000000	         -0.00000000	          0.00000000	         -0.00000000	          0.00000000	          0.88329873	          0.00000000	          0.00000000	         -0.00000000	          0.00000000	
